# xmcd CD database file
#
# Track frame offsets:
#	150
#	16977
#	33637
#	47918
#	59536
#	72161
#	86367
#	99999
#	120076
#	133100
#	148073
#	159669
#
# Disc length: 2313 seconds
#
# Revision: 1
# Processed by: cddbd v1.5.2PL0 Copyright (c) Steve Scherf et al.
# Submitted via: CDex 1.51
#
DISCID=a009070c
DTITLE=Peter Pratt - Nevertheless
DYEAR=2007
DGENRE=Country
TTITLE0=Never Never
TTITLE1=Plasma Screen Cowboy
TTITLE2=Willoughby
TTITLE3=Nevertheless
TTITLE4=More More More (Of Your Kisses)
TTITLE5=Mary Kathleen
TTITLE6=Sons Of The Snowy
TTITLE7=I Drove All Night
TTITLE8=Wrap Me Up In My Stockwhip And Blanket
TTITLE9=Currabubula
TTITLE10=Where The White Faced Cattle Roam
TTITLE11=I'll See You In My Dreams
EXTD=YEAR: 2007
EXTT0=
EXTT1=
EXTT2=
EXTT3=
EXTT4=
EXTT5=
EXTT6=
EXTT7=
EXTT8=
EXTT9=
EXTT10=
EXTT11=
PLAYORDER=
